<?xml version="1.0" encoding="UTF-8"?>
<svg version="1.1" xmlns="http://www.w3.org/2000/svg" width="512" height="512">
<path d="M0 0 C0.82322754 0.00418945 1.64645508 0.00837891 2.49462891 0.01269531 C24.79729808 0.40832673 46.33491495 5.91590766 66.09765625 16.26171875 C68.51079627 17.49041332 68.51079627 17.49041332 72.125 18.3125 C76.04613719 19.54266069 77.4410869 21.39544305 80.3125 24.3125 C81.87172661 25.5371799 83.43224946 26.76071733 85.01831055 27.95043945 C96.52180932 36.58333442 106.4809868 46.52525024 115.18237305 57.96948242 C119.22981867 63.29105466 123.57043198 68.32193169 127.98657227 73.33959961 C130.5488281 76.25513317 133.04900525 79.15303858 135.3125 82.3125 C135.9725 82.044375 136.6325 81.77625 137.3125 81.5 C138.7975 80.9121875 138.7975 80.9121875 140.3125 80.3125 C140.94027344 80.05984375 141.56804687 79.8071875 142.21484375 79.546875 C153.28028156 75.21415079 163.41690207 75.42638269 174.78125 78.65625 C187.93590237 84.8261312 197.77150189 96.33247699 207.859375 106.4609375 C209.64248695 108.24202497 211.42604373 110.0226672 213.21002197 111.80288696 C216.93315215 115.52161264 220.65100908 119.24553009 224.36474609 122.97363281 C228.6359539 127.26117337 232.91787658 131.53778462 237.20549846 135.80890596 C241.36051933 139.94858606 245.50696314 144.09676285 249.64994049 148.24849319 C251.40030479 150.00084781 253.15287009 151.75100697 254.90773773 153.49885178 C257.3648004 155.94823292 259.81193822 158.40713599 262.25683594 160.86865234 C262.97179733 161.57754105 263.68675873 162.28642975 264.42338562 163.01679993 C273.68929912 172.39879213 281.22649739 182.84885785 281.32910156 196.52539062 C281.25564139 199.24874027 281.13539357 201.96651876 281 204.6875 C280.95367432 205.71536621 280.90734863 206.74323242 280.85961914 207.80224609 C280.56425942 214.04396653 280.19827474 220.28000875 279.796875 226.515625 C279.75210526 227.21382355 279.70733551 227.91202209 279.66120911 228.63137817 C279.43998392 232.0613698 279.21158094 235.49055813 278.97338867 238.91943359 C277.41221061 256.26485961 277.41221061 256.26485961 281.0625 273 C283.41400308 279.39060454 285.25142887 285.70289802 286.625 292.375 C286.78387695 293.13578857 286.94275391 293.89657715 287.10644531 294.68041992 C295.35713473 336.08346743 285.69202948 378.95496162 263.3125 414.3125 C259.94540916 419.22564163 256.20724456 423.8113309 252.3125 428.3125 C251.62172363 429.11276611 251.62172363 429.11276611 250.91699219 429.92919922 C223.56949484 461.29162348 185.20204575 480.93225558 143.60498047 484.16748047 C121.65640594 485.55592065 95.8048509 484.37744292 75.640625 474.62109375 C64.80348311 469.43130691 55.85160123 470.05743278 44.08300781 471.01416016 C37.35994573 471.54611961 30.62966798 471.95387762 23.89755249 472.35229492 C21.55144179 472.49683085 19.20723664 472.66032635 16.86254883 472.82617188 C2.61482907 473.77104481 -9.49018806 472.4680686 -21.17890549 463.3741703 C-23.57017186 461.19393246 -25.85639025 458.94401119 -28.12451172 456.63598633 C-29.41478523 455.35907425 -29.41478523 455.35907425 -30.73112488 454.05636597 C-33.05820539 451.74678299 -35.37151973 449.42449682 -37.67832708 447.09469438 C-40.11245141 444.64144923 -42.56180912 442.2034864 -45.00881958 439.7631073 C-49.11256975 435.66566954 -53.20395075 431.55619243 -57.28808594 427.43920898 C-61.9887083 422.70109037 -66.70866414 417.98292926 -71.43942249 413.27491361 C-76.0183338 408.7170562 -80.58288567 404.14506677 -85.1413002 399.56671715 C-87.06875807 397.63133883 -89.00100135 395.70094173 -90.93746567 393.77457619 C-93.64634719 391.07373937 -96.3384551 388.3571913 -99.02685547 385.63598633 C-99.818647 384.8527449 -100.61043854 384.06950348 -101.42622375 383.26252747 C-110.34426837 374.157093 -115.49713615 364.21024188 -116 351.4375 C-115.85710363 344.40260159 -114.00441316 337.51368547 -110.6875 331.3125 C-116.64219182 325.78799504 -122.63921092 320.46381172 -129.0234375 315.4375 C-133.82193359 311.6099606 -138.49171075 307.63156603 -143.14746094 303.63232422 C-144.54274795 302.43655351 -145.94667308 301.25088046 -147.3515625 300.06640625 C-172.90937139 277.95687317 -189.88322686 243.99137196 -192.6875 210.3125 C-192.87713055 205.87433815 -192.91813514 201.44181435 -192.9375 197 C-192.958125 195.85982422 -192.97875 194.71964844 -193 193.54492188 C-193.09280233 172.55999437 -187.37954907 151.92300276 -182.8449707 131.55688477 C-181.92495862 127.42303768 -181.02015956 123.28601707 -180.11901188 119.14802265 C-179.4150985 115.92662615 -178.70146415 112.70744007 -177.98510551 109.48879051 C-177.64725428 107.96385313 -177.31275932 106.43816773 -176.98185921 104.91170692 C-172.68949707 85.15999279 -172.68949707 85.15999279 -165.625 79.375 C-164.95339844 78.80910156 -164.28179687 78.24320312 -163.58984375 77.66015625 C-158.24371445 73.87285726 -150.91449867 74.684973 -144.6875 75.3125 C-141.57369357 76.54376086 -139.23550126 78.16903922 -136.6875 80.3125 C-135.3675 81.3025 -134.0475 82.2925 -132.6875 83.3125 C-125.7575 76.3825 -118.8275 69.4525 -111.6875 62.3125 C-113.46700067 58.32248308 -113.46700067 58.32248308 -116.125 55.5625 C-120.30191102 50.64412548 -122.34656598 44.8949459 -122.02734375 38.3828125 C-120.86650736 31.3110506 -117.50009685 26.45462965 -112.09832764 21.90588379 C-107.76237788 19.04013265 -103.08290566 18.23434919 -98.0390625 17.265625 C-96.90973297 17.02732971 -95.78040344 16.78903442 -94.61685181 16.54351807 C-92.20972453 16.038071 -89.80027043 15.54359842 -87.38879395 15.05932617 C-83.71712374 14.31847731 -80.0550622 13.54138488 -76.39355469 12.75195312 C-70.20940181 11.42184002 -64.01899508 10.12479625 -57.82470703 8.84277344 C-54.02884495 8.05552002 -50.23514787 7.25833886 -46.44140625 6.4609375 C-14.92599709 -0.11078016 -14.92599709 -0.11078016 0 0 Z " fill="#020304" transform="translate(207.6875,13.6875)"/>
<path d="M0 0 C1.50463867 1.31591797 1.50463867 1.31591797 2.91796875 2.9921875 C3.44519531 3.60900391 3.97242188 4.22582031 4.515625 4.86132812 C5.06734375 5.52583984 5.6190625 6.19035156 6.1875 6.875 C7.05568359 7.89883789 7.05568359 7.89883789 7.94140625 8.94335938 C11.89517886 13.6219903 15.77090885 18.36406388 19.625 23.125 C22.52495875 26.63547639 25.50758138 30.06832727 28.5 33.5 C32.97534516 38.63227656 37.34007126 43.83185274 41.625 49.125 C44.52496065 52.63547868 47.50764252 56.06827142 50.5 59.5 C55.01805967 64.68297676 59.44375368 69.9213711 63.76171875 75.2734375 C65.36422273 77.22552786 66.98182522 79.14002366 68.64453125 81.0390625 C93.24412611 109.21536311 107.48368024 144.07186562 107.3125 181.6875 C107.30686035 182.99895996 107.3012207 184.31041992 107.29541016 185.66162109 C106.87718729 219.30578723 95.26758319 253.42874839 73 279 C72.27941406 279.83015625 71.55882812 280.6603125 70.81640625 281.515625 C68.57857617 284.0443342 66.30054516 286.52830702 64 289 C63.33742188 289.72832031 62.67484375 290.45664062 61.9921875 291.20703125 C47.12103754 306.8980735 28.15094437 317.67627739 8 325 C6.87980469 325.44085938 5.75960937 325.88171875 4.60546875 326.3359375 C-30.73112488 339.42356477 -71.79647237 336.04238911 -106 321 C-122.05784041 313.61265171 -135.48991638 303.40911182 -148.734375 291.8359375 C-151.60665297 289.32730265 -154.5362805 286.90043948 -157.5 284.5 C-164.7287698 278.62596304 -171.75702867 272.51941302 -178.81152344 266.43847656 C-185.52640375 260.65329304 -192.27422246 254.93033706 -199.15625 249.34375 C-203.08331776 246.10715569 -206.94636922 242.79752696 -210.77563477 239.44580078 C-213.56082993 237.02116994 -216.34505526 234.70532112 -219.37109375 232.5859375 C-220.38300781 231.85632813 -221.39492187 231.12671875 -222.4375 230.375 C-223.34371094 229.76398438 -224.24992188 229.15296875 -225.18359375 228.5234375 C-227.67638602 225.06033254 -226.98678588 223.07299278 -226.48576355 218.96115112 C-225.57825046 213.4290699 -224.16044076 208.03796814 -222.74609375 202.6171875 C-222.40924641 201.30378367 -222.07309959 199.99020001 -221.7375946 198.67645264 C-221.0196515 195.87041892 -220.29738621 193.06554938 -219.57159424 190.26153564 C-218.42349609 185.82520381 -217.28556805 181.38630597 -216.14990234 176.94677734 C-215.95794281 176.19648317 -215.76598328 175.446189 -215.56820679 174.67315865 C-215.1766697 173.14277768 -214.78515729 171.6123904 -214.39366913 170.08199692 C-213.79708768 167.75119446 -213.19958164 165.42063067 -212.60186768 163.09011841 C-208.5563981 147.30979625 -204.5915544 131.50958699 -200.64458084 115.70438385 C-199.96062422 112.96716139 -199.27516828 110.23031532 -198.58973789 107.49346161 C-197.79044472 104.30061599 -196.99294327 101.10732382 -196.1953125 97.9140625 C-195.9147551 96.79384705 -195.63419769 95.67363159 -195.34513855 94.51947021 C-193.47873685 87.03180387 -191.71256341 79.52430584 -190 72 C-186.37354406 73.74556846 -183.81695583 75.83577185 -180.87890625 78.5625 C-175.24278053 82.87454629 -168.79376643 82.81964595 -162 82 C-153.80501173 79.36266262 -149.38444764 75.19333895 -145.1875 67.8125 C-143.22563942 61.51389497 -142.7400099 55.02057797 -145.5 48.875 C-147.86665698 44.72477543 -151.10573839 41.3235514 -154.390625 37.8828125 C-156 36 -156 36 -156 34 C-155.21278564 33.82460693 -154.42557129 33.64921387 -153.61450195 33.46850586 C-139.11230375 30.23123014 -124.62585885 26.95019788 -110.1875 23.4375 C-88.45147255 18.15283908 -66.63803964 13.21960512 -44.80834961 8.33886719 C-37.12748091 6.61947085 -29.45181642 4.88645924 -21.796875 3.0546875 C-20.5903125 2.76787109 -19.38375 2.48105469 -18.140625 2.18554688 C-15.94600884 1.66091225 -13.75315133 1.1288419 -11.5625 0.58789062 C-10.60859375 0.36037109 -9.6546875 0.13285156 -8.671875 -0.1015625 C-7.45129395 -0.40054443 -7.45129395 -0.40054443 -6.20605469 -0.70556641 C-3.74869726 -1.03354041 -2.30393095 -0.90574271 0 0 Z " fill="#DADADA" transform="translate(382,156)"/>
<path d="M0 0 C0.79921875 -0.0515625 1.5984375 -0.103125 2.421875 -0.15625 C11.3082967 1.9057926 18.25143376 11.21680458 24.48364258 17.47485352 C25.59282927 18.58132554 26.70243997 19.68737266 27.81243896 20.79302979 C30.80641176 23.77793604 33.79408544 26.76907188 36.78034425 29.76169324 C39.91360291 32.90003791 43.05176389 36.03347457 46.18913269 39.16770935 C51.45219906 44.42714525 56.71105239 49.69076603 61.9675293 54.95678711 C68.04072375 61.04088131 74.12111233 67.11771437 80.20525438 73.19085938 C85.43798256 78.41450873 90.6667997 83.64204897 95.89237326 88.8728556 C99.0095827 91.99317927 102.12811877 95.11214481 105.25019264 98.22760201 C108.1825538 101.1541811 111.10997004 104.08561868 114.03366089 107.02085876 C115.10624104 108.09608014 116.18052073 109.16960928 117.25662804 110.24130058 C118.72681722 111.70601218 120.1906882 113.17676616 121.65315247 114.64918518 C122.4732974 115.47008416 123.29344233 116.29098314 124.13844013 117.13675785 C128.30008803 121.79444333 129.69875736 124.97899129 129.47812653 131.11185837 C129.10268138 135.04220437 128.22832231 138.77272802 127.23730469 142.58837891 C127.02249451 143.45054016 126.80768433 144.31270142 126.58636475 145.20098877 C125.87494804 148.04548756 125.14851967 150.88591915 124.421875 153.7265625 C123.91163301 155.7532212 123.40231412 157.7801125 122.89385986 159.80722046 C121.54665922 165.16735272 120.18664072 170.52415283 118.82397461 175.88037109 C117.48673487 181.14612401 116.16189975 186.4149921 114.8359375 191.68359375 C112.46481496 201.0975512 110.07761712 210.50734074 107.68294525 219.91533279 C106.00857277 226.49879506 104.34743281 233.08545187 102.69549179 239.67457771 C101.59195191 244.07288264 100.48294082 248.46979755 99.37302399 252.86649704 C98.84612702 254.95906778 98.32163821 257.05224645 97.79964447 259.14604568 C97.0801631 262.03049196 96.35214895 264.91265442 95.62207031 267.79443359 C95.41041481 268.65212719 95.19875931 269.50982079 94.98069 270.3935051 C93.47797033 276.27202967 93.47797033 276.27202967 91.25 278.5 C75.10946405 265.26342202 75.10946405 265.26342202 67.3125 258.625 C62.88465247 254.85588524 58.38652649 251.19199114 53.828125 247.58203125 C50.84032832 245.16915908 47.91943803 242.68203921 45 240.1875 C40.54356289 236.38251966 36.00760235 232.71293847 31.375 229.125 C1.48333271 205.86942493 -22.8848949 178.69491665 -30.75 140.5 C-30.95625 139.54996094 -31.1625 138.59992188 -31.375 137.62109375 C-32.83380185 129.52676962 -33.05073993 121.3953554 -33.1875 113.1875 C-33.22190186 112.11693359 -33.25630371 111.04636719 -33.29174805 109.94335938 C-33.35390374 97.51222159 -30.40357002 85.58187123 -27.75 73.5 C-27.48945831 72.30545197 -27.22891663 71.11090393 -26.96047974 69.88015747 C-25.31117246 62.33812629 -23.62875766 54.80388168 -21.9284668 47.27319336 C-21.19674997 44.03214371 -20.46764882 40.79053153 -19.74017048 37.54852962 C-19.03243934 34.39535702 -18.32288241 31.24259596 -17.61328125 28.08984375 C-17.35492996 26.9408812 -17.09657867 25.79191864 -16.83039856 24.60813904 C-16.14408995 21.57039518 -15.44962951 18.53469999 -14.75 15.5 C-14.56649994 14.68943146 -14.38299988 13.87886292 -14.19393921 13.04373169 C-13.14661939 8.58919377 -12.02722361 5.77722361 -8.75 2.5 C-5.80555772 0.73333463 -3.42372056 0.13084282 0 0 Z " fill="#478EF6" transform="translate(55.75,96.5)"/>
<path d="M0 0 C2.39528953 2.12993249 4.72656992 4.29984245 7.01953125 6.5390625 C7.88578125 7.3846875 8.75203125 8.2303125 9.64453125 9.1015625 C10.82015625 10.308125 10.82015625 10.308125 12.01953125 11.5390625 C12.57640625 12.06242187 13.13328125 12.58578125 13.70703125 13.125 C18.48980778 17.69563724 22.56756331 22.67197385 26.59350586 27.90307617 C30.15099356 32.50082906 33.87555753 36.91775724 37.70703125 41.2890625 C41.92909643 46.10806359 46.03156461 50.98050572 49.99609375 56.015625 C52.44754303 59.07283781 54.97849349 62.05625519 57.51953125 65.0390625 C61.40111794 69.59731667 65.1888045 74.2114788 68.890625 78.91796875 C70.55538916 80.96761417 72.24926109 82.95963234 73.9921875 84.94140625 C74.50330078 85.52728516 75.01441406 86.11316406 75.54101562 86.71679688 C76.55329999 87.87277687 77.5739344 89.02150783 78.60351562 90.16210938 C79.9921875 91.75390625 79.9921875 91.75390625 82.01953125 94.5390625 C81.68953125 95.5290625 81.35953125 96.5190625 81.01953125 97.5390625 C78.84350586 98.41113281 78.84350586 98.41113281 75.921875 99.1171875 C74.82721924 99.38716553 73.73256348 99.65714355 72.60473633 99.93530273 C71.40099365 100.21704346 70.19725098 100.49878418 68.95703125 100.7890625 C67.70494873 101.09207275 66.45286621 101.39508301 65.1628418 101.70727539 C54.58405751 104.25247418 43.95073219 106.55359214 33.3137207 108.84057617 C23.55285566 110.9458291 13.84277543 113.22524722 4.14453125 115.6015625 C3.45363403 115.77080231 2.76273682 115.94004211 2.05090332 116.1144104 C1.36411499 116.28266327 0.67732666 116.45091614 -0.03027344 116.62426758 C-1.39777006 116.95921408 -2.76528292 117.29409432 -4.1328125 117.62890625 C-4.79942902 117.79213882 -5.46604553 117.9553714 -6.15286255 118.12355042 C-14.63468689 120.19499951 -23.14351414 122.14630141 -31.65625 124.0859375 C-36.14014241 125.10881445 -40.61445872 126.16636124 -45.0859375 127.2421875 C-46.260354 127.52175293 -47.43477051 127.80131836 -48.64477539 128.08935547 C-50.88394219 128.62296432 -53.12154055 129.16321713 -55.35717773 129.71142578 C-62.88306271 131.49215471 -69.73743 133.1038427 -76.98046875 129.5390625 C-79.44858837 127.44567299 -79.44858837 127.44567299 -82.08598328 124.80776978 C-82.574787 124.32294046 -83.06359072 123.83811114 -83.56720668 123.33859003 C-85.19873462 121.71666527 -86.81934921 120.08426414 -88.44018555 118.45166016 C-89.60944825 117.28482604 -90.77935613 116.11863814 -91.94985962 114.95304871 C-95.12390336 111.78840773 -98.28846147 108.6144357 -101.4511373 105.43843889 C-104.76194263 102.11631554 -108.08045883 98.80191062 -111.39790344 95.48641968 C-116.96718754 89.91801838 -122.53046086 84.3436672 -128.09008789 78.765625 C-134.51908158 72.31545876 -140.95686509 65.87417151 -147.39957112 59.43770373 C-153.59634495 53.24662309 -159.78743429 47.0498894 -165.97574806 40.85035324 C-168.60992104 38.21153422 -171.24597055 35.57461094 -173.88352013 32.93916702 C-176.98829957 29.83627022 -180.08804131 26.72842657 -183.18394852 23.61667824 C-184.32145128 22.47493055 -185.46065758 21.33487717 -186.60167503 20.19664192 C-188.15775964 18.64377676 -189.70756175 17.08490093 -191.25590515 15.52432251 C-192.12511439 14.6530604 -192.99432364 13.78179829 -193.88987255 12.88413429 C-197.43626136 8.90606509 -198.44209786 5.98690761 -198.30078125 0.56640625 C-197.6523678 -3.53757646 -195.24295193 -6.33240992 -192.22485352 -9.03027344 C-189.45246207 -10.79751089 -187.03638774 -11.35592702 -183.8203125 -12.0390625 C-182.56839111 -12.30944336 -181.31646973 -12.57982422 -180.02661133 -12.85839844 C-178.65712987 -13.14289634 -177.28758045 -13.42706726 -175.91796875 -13.7109375 C-174.49945062 -14.01267733 -173.08107731 -14.31509868 -171.6628418 -14.61816406 C-159.44795469 -17.2130272 -147.20148735 -19.66310471 -134.94702148 -22.06347656 C-128.58327705 -23.3134286 -122.24050325 -24.60618009 -115.92578125 -26.08984375 C-75.76819181 -35.50405447 -32.0056754 -26.42670446 0 0 Z " fill="#478EF6" transform="translate(291.98046875,51.4609375)"/>
<path d="M0 0 C0.77689682 0.25370865 1.55379364 0.5074173 2.35423279 0.76881409 C4.89642218 1.60311207 7.43158458 2.45676811 9.96679688 3.31201172 C11.74815152 3.90377258 13.52977255 4.49473209 15.31164551 5.08493042 C19.03643775 6.32211789 22.7578195 7.56895183 26.47705078 8.82275391 C31.22178696 10.42140113 35.97417445 11.9957187 40.72940826 13.56282234 C44.40806141 14.77814703 48.08229232 16.0064178 51.75535583 17.23852158 C53.50496214 17.82371163 55.25589241 18.40495977 57.00819397 18.98202896 C79.78197933 26.5019443 79.78197933 26.5019443 84.37573242 34.93603516 C87.5791262 42.27980534 90.08768563 49.91913454 92.64257812 57.50732422 C93.19590862 59.14102154 93.74926918 60.77470869 94.30265808 62.40838623 C95.45540152 65.8188819 96.60143612 69.23155489 97.74389648 72.64550781 C99.19824737 76.98672489 100.67880062 81.31850865 102.16582203 85.64862442 C103.31691275 89.01566569 104.44876545 92.38895491 105.57568932 95.76415253 C106.11289968 97.36263449 106.65697631 98.95882815 107.20847511 100.55243683 C114.91510414 122.88237197 114.91510414 122.88237197 110.44538879 132.20269775 C107.00994883 137.26094088 102.48213045 140.6845047 96.68554688 142.61669922 C90.45520361 143.19472844 85.18781613 142.21907478 79.32348633 140.20166016 C78.15091278 139.81627831 78.15091278 139.81627831 76.95465088 139.42311096 C74.39810376 138.5789673 71.84853864 137.71562672 69.29882812 136.85107422 C67.51033189 136.25438948 65.72152323 135.65864045 63.93241882 135.06378174 C60.19512359 133.81792724 56.46108805 132.56287975 52.72924805 131.30078125 C47.95635267 129.68710551 43.17705393 128.0934931 38.39529133 126.50631332 C34.70488936 125.27952723 31.01754558 124.04375955 27.33110619 122.80512238 C25.57011987 122.21429068 23.80832739 121.625856 22.04570961 121.03990936 C19.5805288 120.21855506 17.11958598 119.38556413 14.65942383 118.54931641 C13.93772507 118.31122757 13.21602631 118.07313873 12.47245789 117.82783508 C5.32801339 115.37156352 0.12170719 111.85500582 -4.31445312 105.61669922 C-5.56861082 102.98008924 -6.48201169 100.28106155 -7.37304688 97.50341797 C-7.77208473 96.31727905 -7.77208473 96.31727905 -8.17918396 95.10717773 C-9.04969843 92.5102906 -9.90120965 89.90762384 -10.75195312 87.30419922 C-11.66514006 84.55108053 -12.58198392 81.79919572 -13.49890137 79.0473175 C-14.13283667 77.14316618 -14.76505721 75.23844318 -15.39562988 73.33317566 C-17.63106856 66.59612696 -19.9627415 59.89797702 -22.34179688 53.21044922 C-23.31178027 50.46098225 -24.2802782 47.71099651 -25.24832153 44.96084595 C-25.86956411 43.20718888 -26.4967892 41.45563825 -27.13034058 39.70639038 C-35.10572625 17.64810719 -35.10572625 17.64810719 -31.07104492 8.92993164 C-23.76843232 -3.29700852 -12.53963063 -4.28699172 0 0 Z " fill="#478EF5" transform="translate(297.314453125,267.38330078125)"/>
<path d="M0 0 C5.75693877 4.66144082 11.02219158 9.86474561 16.2644043 15.08740234 C17.04758026 15.86400711 17.83075623 16.64061188 18.63766479 17.44075012 C21.20273168 19.9862643 23.76390654 22.5356415 26.32421875 25.0859375 C27.20427896 25.96192219 28.08433918 26.83790688 28.99106789 27.74043655 C33.16507866 31.89580269 37.33705602 36.05319103 41.50594205 40.21369874 C46.29303926 44.99101079 51.08832003 49.75990866 55.89065045 54.52190626 C60.07256494 58.66991468 64.24336091 62.82896474 68.41037941 66.99193192 C70.17518462 68.75187848 71.94335591 70.50845661 73.71500206 72.26151657 C76.19414852 74.71624649 78.66028822 77.18338103 81.1237793 79.65380859 C81.85064438 80.36786362 82.57750946 81.08191864 83.32640076 81.81761169 C93.47235033 92.06764745 95.19453006 100.4662482 95.1875 114.5 C95.18814453 115.81887207 95.18878906 117.13774414 95.18945312 118.49658203 C95.14262863 132.04832053 94.18337417 145.50135152 93 159 C89.65555001 155.76980818 87.22441993 152.38868 84.8125 148.4375 C80.6774869 141.85289933 76.07673244 135.8971324 71 130 C70.05042811 128.88832238 69.10122722 127.77632778 68.15234375 126.6640625 C66.11931254 124.28496228 64.08090196 121.91060591 62.0390625 119.5390625 C58.71878494 115.67910808 55.43288446 111.79067074 52.14941406 107.89941406 C48.74705344 103.87178114 45.31411954 99.87125582 41.875 95.875 C38.38180518 91.8137519 34.93551449 87.72481221 31.5625 83.5625 C27.96363802 79.12760474 24.25264112 74.80435749 20.5 70.5 C15.98522716 65.32069828 11.56762247 60.08164386 7.2421875 54.7421875 C4.69746317 51.62999852 2.10381775 48.56273503 -0.5 45.5 C-4.62113948 40.65051278 -8.66991612 35.74838877 -12.6875 30.8125 C-15.26147575 27.68198895 -17.87630377 24.58881014 -20.5 21.5 C-21.88179878 19.86786833 -23.26288516 18.2351378 -24.64355469 16.60205078 C-25.54355469 15.53909182 -26.44523348 14.47755188 -27.34863281 13.41748047 C-28.61410981 11.9298169 -29.86976714 10.43381727 -31.125 8.9375 C-31.84945313 8.08027344 -32.57390625 7.22304687 -33.3203125 6.33984375 C-34.91131619 4.12353861 -35.59369928 2.66557894 -36 0 C-34.77493102 -0.65357278 -33.54470484 -1.29748233 -32.3125 -1.9375 C-31.62800781 -2.29714844 -30.94351562 -2.65679687 -30.23828125 -3.02734375 C-20.17953639 -7.39842136 -9.1916707 -5.41036244 0 0 Z " fill="#478DF4" transform="translate(385,103)"/>
<path d="M0 0 C5.81639194 4.1878022 11.24062451 8.72741944 16.65942383 13.40771484 C22.02633308 18.03924576 27.49989044 22.52761709 33 27 C42.31263422 34.60834567 51.55932104 42.28125246 60.66796875 50.1328125 C63.95003694 52.96188441 67.25264492 55.76602034 70.5625 58.5625 C71.09520508 59.01262451 71.62791016 59.46274902 72.17675781 59.92651367 C73.24810723 60.83150145 74.31955889 61.73636821 75.39111328 62.64111328 C78.09572289 64.92546186 80.79772127 67.21289508 83.5 69.5 C84.58332099 70.41668126 85.66665432 71.33334793 86.75 72.25 C106.25 88.75 106.25 88.75 107.87402344 90.12451172 C108.96016789 91.04333121 110.04675844 91.96162361 111.13378906 92.87939453 C113.80297754 95.1340681 116.46441671 97.3966182 119.109375 99.6796875 C125.20791285 104.92604871 131.43449612 109.97109174 137.8125 114.875 C138.50569336 115.41044434 139.19888672 115.94588867 139.91308594 116.49755859 C143.98607043 119.60046054 148.13471695 122.40826058 152.5378418 125.02392578 C153.020354 125.34603027 153.50286621 125.66813477 154 126 C154 126.33 154 126.66 154 127 C141.08478651 128.45002098 128.18228924 129.26417195 115.1875 129.4375 C113.93179199 129.47166016 112.67608398 129.50582031 111.38232422 129.54101562 C92.91295219 129.62991754 82.90407658 116.98294505 70.62415981 104.82338524 C68.21090647 102.42730227 65.8003117 100.02857589 63.390625 97.62890625 C62.55777733 96.80013411 61.72492966 95.97136196 60.86684418 95.11747551 C56.46736666 90.73873385 52.07108418 86.35681227 47.67724609 81.97241211 C43.15786256 77.46412971 38.626912 72.96765826 34.09332657 68.47366428 C30.5880997 64.99463404 27.09183742 61.50669752 23.59789276 58.01634026 C21.9316061 56.3549033 20.26196177 54.69682633 18.58881378 53.04229927 C16.24655906 50.72452338 13.91739545 48.39429176 11.59082031 46.06079102 C10.90809555 45.39087631 10.22537079 44.72096161 9.5219574 44.03074646 C1.29567048 35.71544122 -3.78989769 26.86361508 -4.375 15.125 C-4.28847906 9.55305125 -2.37141114 4.97572872 0 0 Z " fill="#478DF4" transform="translate(104,349)"/>
<path d="M0 0 C1.10408203 -0.03867188 1.10408203 -0.03867188 2.23046875 -0.078125 C8.92573578 0.77271075 13.30128969 4.15240952 17.8996582 8.85131836 C18.4631749 9.41103836 19.02669159 9.97075836 19.60728455 10.54743958 C21.45251106 12.38530469 23.28301924 14.23708523 25.11328125 16.08984375 C26.39812878 17.3770778 27.68371906 18.66357087 28.97001648 19.94935608 C31.65659216 22.63905192 34.33633925 25.33530821 37.01098633 28.03686523 C40.43840209 31.49832784 43.87890502 34.94641005 47.3241396 38.39012814 C49.9764221 41.04295447 52.62346042 43.700961 55.26875877 46.3607502 C56.53583272 47.63418341 57.80411713 48.90641341 59.07363319 50.17741203 C60.84495299 51.9530701 62.6095312 53.73515929 64.37231445 55.51928711 C64.89646942 56.04253571 65.42062439 56.5657843 65.96066284 57.10488892 C70.01250909 61.22864159 72.09491803 64.18585207 72.1875 70 C72.05805361 75.16262672 71.01696901 79.14486662 67.8125 83.25 C63.89957319 86.74730505 59.3975981 87.79116158 54.31640625 88.5625 C45.16111604 87.41987408 39.31834045 80.26325502 33.25 74 C32.34314453 73.08347656 31.43628906 72.16695313 30.50195312 71.22265625 C26.70478069 67.36215171 22.99010449 63.47379665 19.45092773 59.37524414 C15.99950318 55.4078371 12.35312179 51.69374121 8.6015625 48.01171875 C7.26159161 46.68437313 5.92175151 45.35689546 4.58203125 44.02929688 C2.49681781 41.96904273 0.41001303 39.91044736 -1.67919922 37.85424805 C-3.71495468 35.84857647 -5.74454134 33.83682533 -7.7734375 31.82421875 C-8.40253021 31.20858566 -9.03162292 30.59295258 -9.67977905 29.95866394 C-10.54670883 29.09680229 -10.54670883 29.09680229 -11.43115234 28.2175293 C-11.94076508 27.71537399 -12.45037781 27.21321869 -12.97543335 26.69584656 C-15.99578436 23.09293898 -15.51565042 18.4203776 -15.46875 13.9765625 C-14.93969782 8.8476955 -12.29087553 6.2220213 -8.5625 2.9375 C-5.46173521 0.73432502 -3.75414359 0.07753825 0 0 Z " fill="#2F3F55" transform="translate(159.1875,143.75)"/>
<path d="M0 0 C0.77689682 0.25370865 1.55379364 0.5074173 2.35423279 0.76881409 C4.89642218 1.60311207 7.43158458 2.45676811 9.96679688 3.31201172 C11.74815152 3.90377258 13.52977255 4.49473209 15.31164551 5.08493042 C19.03643775 6.32211789 22.7578195 7.56895183 26.47705078 8.82275391 C31.22178696 10.42140113 35.97417445 11.9957187 40.72940826 13.56282234 C44.40806141 14.77814703 48.08229232 16.0064178 51.75535583 17.23852158 C53.50496214 17.82371163 55.25589241 18.40495977 57.00819397 18.98202896 C79.78197933 26.5019443 79.78197933 26.5019443 84.37573242 34.93603516 C87.5791262 42.27980534 90.08768563 49.91913454 92.64257812 57.50732422 C93.19590862 59.14102154 93.74926918 60.77470869 94.30265808 62.40838623 C95.45540152 65.8188819 96.60143612 69.23155489 97.74389648 72.64550781 C99.19824737 76.98672489 100.67880062 81.31850865 102.16582203 85.64862442 C103.31691275 89.01566569 104.44876545 92.38895491 105.57568932 95.76415253 C106.11289968 97.36263449 106.65697631 98.95882815 107.20847511 100.55243683 C114.91510414 122.88237197 114.91510414 122.88237197 110.44538879 132.20269775 C107.00994883 137.26094088 102.48213045 140.6845047 96.68554688 142.61669922 C90.45520361 143.19472844 85.18781613 142.21907478 79.32348633 140.20166016 C78.15091278 139.81627831 78.15091278 139.81627831 76.95465088 139.42311096 C74.39810376 138.5789673 71.84853864 137.71562672 69.29882812 136.85107422 C67.51033189 136.25438948 65.72152323 135.65864045 63.93241882 135.06378174 C60.19512359 133.81792724 56.46108805 132.56287975 52.72924805 131.30078125 C47.95635267 129.68710551 43.17705393 128.0934931 38.39529133 126.50631332 C34.70488936 125.27952723 31.01754558 124.04375955 27.33110619 122.80512238 C25.57011987 122.21429068 23.80832739 121.625856 22.04570961 121.03990936 C19.5805288 120.21855506 17.11958598 119.38556413 14.65942383 118.54931641 C13.93772507 118.31122757 13.21602631 118.07313873 12.47245789 117.82783508 C5.32801339 115.37156352 0.12170719 111.85500582 -4.31445312 105.61669922 C-5.56861082 102.98008924 -6.48201169 100.28106155 -7.37304688 97.50341797 C-7.77208473 96.31727905 -7.77208473 96.31727905 -8.17918396 95.10717773 C-9.04969843 92.5102906 -9.90120965 89.90762384 -10.75195312 87.30419922 C-11.66514006 84.55108053 -12.58198392 81.79919572 -13.49890137 79.0473175 C-14.13283667 77.14316618 -14.76505721 75.23844318 -15.39562988 73.33317566 C-17.63106856 66.59612696 -19.9627415 59.89797702 -22.34179688 53.21044922 C-23.31178027 50.46098225 -24.2802782 47.71099651 -25.24832153 44.96084595 C-25.86956411 43.20718888 -26.4967892 41.45563825 -27.13034058 39.70639038 C-35.10572625 17.64810719 -35.10572625 17.64810719 -31.07104492 8.92993164 C-23.76843232 -3.29700852 -12.53963063 -4.28699172 0 0 Z M-23.31445312 10.61669922 C-25.66073974 13.92283035 -25.55043702 16.62487865 -25.31445312 20.61669922 C-24.53901544 23.38451666 -23.70509571 26.02924772 -22.74414062 28.72998047 C-22.47126724 29.52105698 -22.19839386 30.31213348 -21.91725159 31.12718201 C-21.01688602 33.7310417 -20.10357165 36.33013885 -19.18945312 38.92919922 C-18.23323726 41.67354092 -17.27946834 44.41872519 -16.32585144 47.16397095 C-15.66489711 49.0658788 -15.00278076 50.9673832 -14.33955383 52.86849976 C-11.97904606 59.64884782 -9.69517929 66.45191869 -7.44335938 73.26904297 C-6.51327671 76.0653767 -5.58195789 78.86129553 -4.65020752 81.65707397 C-4.05425726 83.45478505 -3.46318109 85.25411969 -2.87713623 87.05508423 C-2.05598125 89.5751411 -1.21654695 92.08842399 -0.37304688 94.60107422 C-0.13703262 95.34199814 0.09898163 96.08292206 0.34214783 96.84629822 C2.11057221 102.03095825 4.29356213 105.93914394 9.44429016 108.48651123 C11.53186335 109.31642083 13.63196391 110.02561006 15.77148438 110.71044922 C16.569263 110.97920868 17.36704163 111.24796814 18.18899536 111.52487183 C20.80824678 112.40337362 23.43395291 113.26042579 26.06054688 114.11669922 C27.88842037 114.7230808 29.71588949 115.3306826 31.54296875 115.93945312 C35.33798836 117.20218492 39.13557975 118.45679114 42.93457031 119.70751953 C48.55801608 121.56550506 54.15782367 123.48846118 59.75585938 125.42138672 C62.38695931 126.32320221 65.018649 127.22326651 67.6506958 128.12231445 C69.3275407 128.69742651 71.0029887 129.27662933 72.67694092 129.86010742 C75.019338 130.67480303 77.36708543 131.4718266 79.71679688 132.26513672 C80.39332306 132.50505341 81.06984924 132.74497009 81.76687622 132.99215698 C86.72975776 134.64018991 91.46388806 135.1619565 96.68554688 134.61669922 C99.08408829 133.54924086 99.08408829 133.54924086 100.68554688 131.80419922 C101.24242187 131.28212891 101.79929687 130.76005859 102.37304688 130.22216797 C105.25794275 126.69332212 104.92298119 122.96491138 104.68554688 118.61669922 C103.99784926 115.92176698 103.25608682 113.37902341 102.36230469 110.75708008 C101.99155319 109.62883568 101.99155319 109.62883568 101.61331177 108.47779846 C100.7988331 106.00879092 99.96927248 103.54516924 99.13867188 101.08154297 C98.56467046 99.35736088 97.99133692 97.63295632 97.41864014 95.90834045 C96.21810708 92.30094517 95.01019757 88.69613065 93.796875 85.09301758 C92.24581007 80.4852868 90.71222649 75.87196539 89.18400955 71.25661373 C88.00331151 67.69668331 86.81388723 64.13971656 85.62178802 60.58358955 C85.0531136 58.88406197 84.48700532 57.18367342 83.9235611 55.48240471 C83.13324384 53.10086805 82.33136509 50.72353189 81.52636719 48.34692383 C81.18326004 47.30174088 81.18326004 47.30174088 80.83322144 46.23544312 C78.8612309 40.4809482 76.72229701 35.89703997 71.48999023 32.60791016 C64.48234076 29.47549799 57.08709718 27.19061336 49.81445312 24.75732422 C48.16588626 24.20266247 46.51736303 23.64787102 44.86888123 23.09295654 C41.42501452 21.93555032 37.97949919 20.78320792 34.53295898 19.63378906 C30.13289464 18.16537112 25.73909994 16.67907153 21.34658909 15.18823624 C17.94801633 14.03799828 14.54540936 12.90008542 11.1415844 11.7654953 C9.52032187 11.22289659 7.90051924 10.67591405 6.28228951 10.12433624 C-9.41183624 4.00933298 -9.41183624 4.00933298 -23.31445312 10.61669922 Z " fill="#050608" transform="translate(297.314453125,267.38330078125)"/>
<path d="M0 0 C4.05523038 2.85709413 7.51585617 6.46921234 9.75 10.9375 C10.23681609 18.11803736 9.16726726 23.07494667 4.375 28.75 C-0.3710717 32.70505975 -4.5886429 33.52033415 -10.68359375 33.375 C-15.99201469 32.47006371 -19.56098653 29.29925612 -22.6328125 25.00390625 C-25.06434872 20.64244443 -25.9815009 16.9665687 -25.25 11.9375 C-20.38025346 1.07421926 -11.68429867 -3.81986687 0 0 Z " fill="#FAFAFA" transform="translate(123.25,100.0625)"/>
<path d="M0 0 C4.92190829 4.00620442 9.44650752 8.33616202 13.9375 12.8125 C14.52942139 13.39990967 15.12134277 13.98731934 15.73120117 14.5925293 C20 18.87629543 20 18.87629543 20 20 C19.3709375 20.07476562 18.741875 20.14953125 18.09375 20.2265625 C11.47472176 21.24334093 6.60327055 22.99777933 2 28 C-1.06688373 32.76816501 -3.05281188 37.40660491 -4 43 C-10.78376359 37.44964797 -16.85522968 31.23557973 -23 25 C-22.67 24.34 -22.34 23.68 -22 23 C-20.47644279 22.52133452 -18.92940513 22.11629486 -17.375 21.75 C-11.22757882 19.97602989 -6.97293131 17.41052455 -3.71875 11.78515625 C-1.93737311 7.961558 -0.54297581 4.20806251 0 0 Z " fill="#D4D4D4" transform="translate(140,117)"/>
<path d="M0 0 C1.11832809 0.93719709 2.23362511 1.87801174 3.34765625 2.8203125 C3.96906494 3.34383301 4.59047363 3.86735352 5.23071289 4.40673828 C7.44469491 6.40045246 9.23780733 8.60341797 11 11 C10.28714844 11.21914062 9.57429688 11.43828125 8.83984375 11.6640625 C0.72903512 14.34947155 -5.23548062 17.2807539 -9.375 25 C-10.85158996 28.28131102 -11.64019668 31.40196683 -12 35 C-15.80635497 31.79239749 -19.54563567 28.59253891 -23 25 C-21.43717018 21.23396131 -19.0936525 18.86360849 -16.2109375 16.015625 C-15.74765045 15.55516785 -15.2843634 15.09471069 -14.80703735 14.62030029 C-13.33434102 13.15874922 -11.85482597 11.70432832 -10.375 10.25 C-9.37193678 9.25697389 -8.36932743 8.26348911 -7.3671875 7.26953125 C-4.91669165 4.84102059 -2.4600333 2.41885325 0 0 Z " fill="#D2D2D2" transform="translate(103,80)"/>
</svg>
